<svg width="159" height="48" viewBox="0 0 159 48" fill="none" xmlns="http://www.w3.org/2000/svg"><path d="m49.696 47.735-14.63-14.574A14.166 14.166 0 0 0 38.417 24c0-7.869-6.426-14.272-14.326-14.272S9.764 16.131 9.764 24.001s6.427 14.272 14.327 14.272c3.052 0 5.883-.96 8.21-2.587l4.3 4.285a20.288 20.288 0 0 1-12.51 4.296c-11.217 0-20.344-9.092-20.344-20.266 0-11.176 9.127-20.268 20.346-20.268 11.218 0 20.344 9.092 20.344 20.268 0 3.815-1.064 7.387-2.912 10.438l2.715 2.705A23.791 23.791 0 0 0 48.184 24C48.184 10.767 37.376 0 24.093 0 10.808 0 0 10.767 0 24.001 0 37.235 10.808 48 24.093 48a24.032 24.032 0 0 0 15.177-5.375l5.13 5.11h5.296ZM13.513 24.001c0-5.812 4.746-10.54 10.58-10.54s10.58 4.728 10.58 10.54c0 5.812-4.746 10.54-10.58 10.54S13.513 29.81 13.513 24Z" fill="#D9552B"/><g opacity=".8"><path d="M83.197 33.01h-1.584l-1.612-1.744c-1.729 1.363-3.723 2.044-5.98 2.044-2.658 0-4.897-.9-6.718-2.699-1.82-1.817-2.731-4.034-2.731-6.651 0-2.618.91-4.835 2.73-6.652 1.822-1.818 4.06-2.726 6.719-2.726 2.64 0 4.87.908 6.69 2.726 1.84 1.817 2.759 4.034 2.759 6.652 0 2.526-.874 4.707-2.622 6.542l2.349 2.508Zm-9.176-.79c1.966 0 3.705-.59 5.216-1.772l-4.56-4.88h1.583l3.796 4.09c1.438-1.564 2.158-3.463 2.158-5.698 0-2.327-.783-4.29-2.349-5.889-1.566-1.6-3.514-2.399-5.844-2.399-2.33 0-4.279.8-5.844 2.399-1.566 1.581-2.349 3.544-2.349 5.889 0 2.326.783 4.289 2.349 5.888 1.565 1.581 3.513 2.372 5.844 2.372ZM92.23 33.01h-1.2l2.075-18.81 7.892 16.82 7.893-16.82 2.075 18.81h-1.201l-1.612-14.612c-4.752 10.178-7.137 15.266-7.155 15.266l-7.155-15.266-1.611 14.612ZM131.111 33.01l-2.43-5.97h-7.756l-2.431 5.97h-1.311l7.674-18.729 7.565 18.729h-1.311Zm-9.749-7.06h6.882l-3.414-8.616-3.468 8.615ZM139.084 14.827h1.201V31.92h5.08v1.09h-6.281V14.827ZM152.028 14.827h1.202V31.92h5.079v1.09h-6.281V14.827Z" fill="#222331"/><path d="M83.197 33.01h-1.584l-1.612-1.744c-1.729 1.363-3.723 2.044-5.98 2.044-2.658 0-4.897-.9-6.718-2.699-1.82-1.817-2.731-4.034-2.731-6.651 0-2.618.91-4.835 2.73-6.652 1.822-1.818 4.06-2.726 6.719-2.726 2.64 0 4.87.908 6.69 2.726 1.84 1.817 2.759 4.034 2.759 6.652 0 2.526-.874 4.707-2.622 6.542l2.349 2.508Zm-9.176-.79c1.966 0 3.705-.59 5.216-1.772l-4.56-4.88h1.583l3.796 4.09c1.438-1.564 2.158-3.463 2.158-5.698 0-2.327-.783-4.29-2.349-5.889-1.566-1.6-3.514-2.399-5.844-2.399-2.33 0-4.279.8-5.844 2.399-1.566 1.581-2.349 3.544-2.349 5.889 0 2.326.783 4.289 2.349 5.888 1.565 1.581 3.513 2.372 5.844 2.372ZM92.23 33.01h-1.2l2.075-18.81 7.892 16.82 7.893-16.82 2.075 18.81h-1.201l-1.612-14.612c-4.752 10.178-7.137 15.266-7.155 15.266l-7.155-15.266-1.611 14.612ZM131.111 33.01l-2.43-5.97h-7.756l-2.431 5.97h-1.311l7.674-18.729 7.565 18.729h-1.311Zm-9.749-7.06h6.882l-3.414-8.616-3.468 8.615ZM139.084 14.827h1.201V31.92h5.08v1.09h-6.281V14.827ZM152.028 14.827h1.202V31.92h5.079v1.09h-6.281V14.827Z" stroke="#222331" stroke-width=".5"/></g></svg>
