<svg width="157" height="25" viewBox="0 0 157 25" fill="none" xmlns="http://www.w3.org/2000/svg"><path fill-rule="evenodd" clip-rule="evenodd" d="M145.608 2.047h-8.979V.472h19.806v1.575h-8.98v22.425h-1.819l-.028-22.425ZM129.928.472h1.564v24h-1.564v-24ZM123.381 14.116c.942 1.028 1.412 2.366 1.409 4.013 0 2.034-.773 3.598-2.317 4.696-1.545 1.098-3.84 1.647-6.882 1.647h-11.128v-24h10.413c2.713 0 4.824.531 6.332 1.594 1.509 1.062 2.263 2.576 2.263 4.542a5.356 5.356 0 0 1-1.124 3.462 6.208 6.208 0 0 1-3.05 2.025c1.784.33 3.146 1.003 4.084 2.021Zm-17.1-12.137v9.568h8.525c2.185 0 3.866-.406 5.044-1.219 1.179-.812 1.768-2.006 1.768-3.582 0-1.557-.589-2.74-1.768-3.548-1.178-.807-2.859-1.213-5.044-1.219h-8.525Zm14.826 19.766c1.248-.81 1.873-2.06 1.873-3.75s-.625-2.941-1.873-3.751c-1.249-.803-3.085-1.203-5.509-1.2h-9.317v9.92h9.31c2.411 0 4.247-.406 5.508-1.219h.008ZM85.423 23.565a9.91 9.91 0 0 1-3.818-2.313l.821-1.275a9.489 9.489 0 0 0 3.47 2.143c1.46.554 3.014.834 4.581.828 2.328 0 4.086-.427 5.272-1.282a3.949 3.949 0 0 0 1.78-3.326 3.428 3.428 0 0 0-.944-2.535 6.315 6.315 0 0 0-2.336-1.452 32.807 32.807 0 0 0-3.772-1.046 37.76 37.76 0 0 1-4.29-1.278 6.848 6.848 0 0 1-2.757-1.874c-.763-.842-1.145-1.974-1.145-3.396a5.622 5.622 0 0 1 .943-3.155 6.363 6.363 0 0 1 2.878-2.28A12.081 12.081 0 0 1 90.94.477c1.348 0 2.689.194 3.978.577 1.208.337 2.352.863 3.386 1.556l-.664 1.382a11.385 11.385 0 0 0-3.226-1.478 12.462 12.462 0 0 0-3.474-.51c-2.257 0-3.967.44-5.13 1.319a4.094 4.094 0 0 0-1.745 3.41c-.045.931.294 1.84.943 2.528a6.243 6.243 0 0 0 2.324 1.452c1.251.43 2.525.79 3.818 1.08 1.457.33 2.891.748 4.295 1.252a7.057 7.057 0 0 1 2.737 1.847c.763.82 1.145 1.933 1.145 3.326a5.48 5.48 0 0 1-.958 3.141 6.493 6.493 0 0 1-2.951 2.265 12.53 12.53 0 0 1-4.882.843c-1.747.006-3.48-.3-5.112-.902ZM76.468.472v24h-1.536L57.484 3.625v20.843H55.62V.472h1.573l17.41 20.842V.472h1.865ZM6.194 22.924a11.69 11.69 0 0 1-4.537-4.294 11.67 11.67 0 0 1-1.656-6.155 11.658 11.658 0 0 1 1.656-6.15A11.687 11.687 0 0 1 6.194 2.03 13.35 13.35 0 0 1 12.681.473a13.971 13.971 0 0 1 4.873.83 10.14 10.14 0 0 1 3.815 2.451l-1.118 1.11c-1.966-1.864-4.472-2.798-7.517-2.8a11.607 11.607 0 0 0-5.582 1.35 10.069 10.069 0 0 0-3.942 3.74 10.13 10.13 0 0 0-1.43 5.321 10.147 10.147 0 0 0 1.43 5.326 10.033 10.033 0 0 0 3.942 3.736 11.569 11.569 0 0 0 5.582 1.353c3.022 0 5.521-.946 7.498-2.84l1.118 1.11a10.276 10.276 0 0 1-3.816 2.466 13.79 13.79 0 0 1-4.868.844 13.393 13.393 0 0 1-6.472-1.546Z" fill="#21252A"/><path d="M37.675 24.472c6.62 0 11.988-5.373 11.988-12 0-6.628-5.367-12-11.988-12-6.62 0-11.987 5.372-11.987 12 0 6.627 5.367 12 11.987 12Z" fill="url(#a)"/><path d="M37.675 24.472c6.62 0 11.988-5.373 11.988-12 0-6.628-5.367-12-11.988-12-6.62 0-11.987 5.372-11.987 12 0 6.627 5.367 12 11.987 12Z" fill="url(#b)"/><path d="M37.675 24.472c6.62 0 11.988-5.373 11.988-12 0-6.628-5.367-12-11.988-12-6.62 0-11.987 5.372-11.987 12 0 6.627 5.367 12 11.987 12Z" fill="url(#c)"/><mask id="d" style="mask-type:alpha" maskUnits="userSpaceOnUse" x="25" y="0" width="25" height="25"><path d="M37.675 24.472c6.62 0 11.988-5.373 11.988-12 0-6.628-5.367-12-11.988-12-6.62 0-11.987 5.372-11.987 12 0 6.627 5.367 12 11.987 12Z" fill="#fff"/></mask><g mask="url(#d)"><path opacity=".447" d="M31.584 22.784c-5.728-3.209-8.922-10.66-5.704-16.372C27.058 4.32 30.632.057 33.925-.617c2.703-.552 10.24 2.77 10.24 2.77l-12.58 20.631Z" fill="url(#e)"/><path opacity=".612" fill-rule="evenodd" clip-rule="evenodd" d="M29.12 16.156c1.458 3.48 4.887 5.745 8.687 5.737 5.167-.016 9.351-4.166 9.368-9.29.008-3.768-2.277-7.169-5.786-8.614a9.444 9.444 0 0 0-10.238 2.014 9.252 9.252 0 0 0-2.03 10.153Zm.986-3.57c0-4.218 3.448-7.637 7.7-7.637 4.251.004 7.696 3.42 7.7 7.636 0 4.218-3.447 7.636-7.7 7.636-4.252 0-7.7-3.418-7.7-7.636Z" fill="#fff"/><path opacity=".612" d="M38.693 7.985h-1.697v8.411h1.697V7.985Z" fill="#fff"/></g><defs><linearGradient id="a" x1="53.15" y1="8.534" x2="21.658" y2="10.213" gradientUnits="userSpaceOnUse"><stop stop-color="#0B0928"/><stop offset="1" stop-color="#2F6CFF"/></linearGradient><linearGradient id="b" x1="53.15" y1="8.534" x2="21.658" y2="10.213" gradientUnits="userSpaceOnUse"><stop stop-color="#0B0928"/><stop offset="1" stop-color="#2F6CFF"/></linearGradient><linearGradient id="c" x1="53.15" y1="8.534" x2="21.658" y2="10.213" gradientUnits="userSpaceOnUse"><stop stop-color="#0B0928"/><stop offset="1" stop-color="#2F6CFF"/></linearGradient><linearGradient id="e" x1="47.011" y1="7.203" x2="21.288" y2="8.348" gradientUnits="userSpaceOnUse"><stop stop-color="#0B0928"/><stop offset="1" stop-color="#2F6CFF"/></linearGradient></defs></svg>
