<svg width="157" height="24" viewBox="0 0 157 24" fill="none" xmlns="http://www.w3.org/2000/svg"><path fill-rule="evenodd" clip-rule="evenodd" d="M37.66 23.982A11.982 11.982 0 1 0 37.658.017a11.982 11.982 0 0 0 0 23.965Z" fill="#9C7C4D"/><path opacity=".39" fill-rule="evenodd" clip-rule="evenodd" d="M37.66 23.982A11.982 11.982 0 1 0 37.658.017a11.982 11.982 0 0 0 0 23.965Z" fill="#9C7C4D"/><path d="M37.66 23.982A11.982 11.982 0 1 0 37.658.017a11.982 11.982 0 0 0 0 23.965Z" fill="url(#a)"/><mask id="c" style="mask-type:alpha" maskUnits="userSpaceOnUse" x="25" y="0" width="25" height="24"><path d="M37.66 23.982A11.982 11.982 0 1 0 37.658.017a11.982 11.982 0 0 0 0 23.965Z" fill="url(#b)"/></mask><g mask="url(#c)"><path d="M31.566 22.27c-5.718-3.217-8.919-10.646-5.7-16.346 1.18-2.089 4.758-6.35 8.045-7.019 2.704-.564 10.27 2.756 10.27 2.756l-12.615 20.61Z" fill="url(#d)"/></g><path opacity=".61" fill-rule="evenodd" clip-rule="evenodd" d="M29.1 15.68a9.397 9.397 0 0 0 18.06-3.543 9.312 9.312 0 0 0-5.786-8.558 9.449 9.449 0 0 0-10.27 2.02A9.227 9.227 0 0 0 29.1 15.68Zm.993-3.56a7.703 7.703 0 1 1 7.703 7.617 7.668 7.668 0 0 1-7.703-7.617Z" fill="#fff"/><path opacity=".61" d="M38.67 7.515h-1.695v8.405h1.694V7.515Z" fill="#fff"/><path fill-rule="evenodd" clip-rule="evenodd" d="M145.499 1.593h-8.936V.02h19.805v1.574h-8.986v22.39h-1.883V1.593ZM129.87.019h1.558v23.964h-1.558V.019ZM123.332 13.712a5.685 5.685 0 0 1 1.403 4.006 5.404 5.404 0 0 1-2.311 4.553 11.979 11.979 0 0 1-6.846 1.712h-11.161V.018h10.407a10.904 10.904 0 0 1 6.334 1.592 5.132 5.132 0 0 1 2.259 4.536 5.408 5.408 0 0 1-1.129 3.424 6.112 6.112 0 0 1-3.047 2.02 7.192 7.192 0 0 1 4.091 2.122ZM106.231 1.525v9.551h8.559a8.903 8.903 0 0 0 5.033-1.215 4.089 4.089 0 0 0 1.711-3.578 4.04 4.04 0 0 0-1.711-3.543 8.903 8.903 0 0 0-5.136-1.215h-8.456Zm14.824 19.736a4.145 4.145 0 0 0 1.866-3.749 4.175 4.175 0 0 0-1.866-3.8 10.409 10.409 0 0 0-5.512-1.198h-9.312v9.91h9.312a10.273 10.273 0 0 0 5.495-1.215l.017.052ZM85.382 23.075a10.048 10.048 0 0 1-3.817-2.31l.822-1.267a9.707 9.707 0 0 0 3.424 2.14c1.461.545 3.01.824 4.57.821a8.97 8.97 0 0 0 5.272-1.284 3.92 3.92 0 0 0 1.712-3.32 3.423 3.423 0 0 0-.942-2.534 6.418 6.418 0 0 0-2.276-1.438 32.543 32.543 0 0 0-3.783-1.044c-1.451-.342-2.88-.77-4.28-1.284A6.847 6.847 0 0 1 83.33 9.69a4.81 4.81 0 0 1-1.147-3.424 5.614 5.614 0 0 1 .941-3.15A6.282 6.282 0 0 1 86.067.875a11.982 11.982 0 0 1 4.827-.856c1.35.005 2.693.201 3.989.582 1.218.33 2.374.856 3.423 1.558l-.667 1.37a11.452 11.452 0 0 0-3.218-1.473 13.232 13.232 0 0 0-3.424-.513 8.422 8.422 0 0 0-5.135 1.318 4.057 4.057 0 0 0-1.712 3.423 3.424 3.424 0 0 0 .941 2.534 6.266 6.266 0 0 0 2.209 1.472c1.251.43 2.526.79 3.817 1.078 1.448.338 2.876.756 4.28 1.25a6.847 6.847 0 0 1 2.738 1.848 4.673 4.673 0 0 1 1.147 3.27 5.409 5.409 0 0 1-.959 3.132 6.556 6.556 0 0 1-2.944 2.277 12.855 12.855 0 0 1-4.878.839 14.86 14.86 0 0 1-5.119-.908ZM76.43.019v23.964h-1.523L57.464 3.168v20.815h-1.866V.019h1.575l17.391 20.814V.02h1.866ZM6.198 22.441a11.777 11.777 0 0 1-4.485-4.296A11.64 11.64 0 0 1 0 12 11.589 11.589 0 0 1 6.198 1.575a13.283 13.283 0 0 1 6.47-1.557 14.242 14.242 0 0 1 4.879.821 10.27 10.27 0 0 1 3.817 2.448L20.25 4.4a10.493 10.493 0 0 0-7.515-2.79 11.64 11.64 0 0 0-5.58 1.352 10.116 10.116 0 0 0-3.954 3.731A9.996 9.996 0 0 0 1.712 12a10.014 10.014 0 0 0 5.376 9.055 11.64 11.64 0 0 0 5.58 1.352 10.27 10.27 0 0 0 7.48-2.841l1.13 1.112a10.477 10.477 0 0 1-3.817 2.465 13.83 13.83 0 0 1-4.793.839 13.42 13.42 0 0 1-6.47-1.54Z" fill="#33323E"/><defs><linearGradient id="a" x1="37.659" y1="34.218" x2="37.659" y2="-3.337" gradientUnits="userSpaceOnUse"><stop stop-color="#FB9112"/><stop offset=".18" stop-color="#FB9C2A"/><stop offset=".57" stop-color="#FBB869"/><stop offset="1" stop-color="#FBDBB5"/></linearGradient><linearGradient id="b" x1="37.659" y1="34.218" x2="37.659" y2="-3.337" gradientUnits="userSpaceOnUse"><stop stop-color="#FB9112"/><stop offset=".18" stop-color="#FB9C2A"/><stop offset=".57" stop-color="#FBB869"/><stop offset="1" stop-color="#FBDBB5"/></linearGradient><linearGradient id="d" x1="18.505" y1="7.961" x2="68.796" y2="16.827" gradientUnits="userSpaceOnUse"><stop stop-color="#FB9112"/><stop offset="1" stop-color="#FBDBB5"/></linearGradient></defs></svg>
