<svg width="141" height="40" viewBox="0 0 141 40" fill="none" xmlns="http://www.w3.org/2000/svg"><path d="M44.025 6.875C44 6.933 44 7.016 44 7.167V32.8c0 .183 0 .283.033.35a.293.293 0 0 0 .142.142c.075.033.167.033.35.033h12.642a8.17 8.17 0 0 0 8.166-8.167 8.146 8.146 0 0 0-2.775-6.133A7.762 7.762 0 0 0 64 14.5a7.835 7.835 0 0 0-7.833-7.833H44.5c-.158 0-.233 0-.292.024a.33.33 0 0 0-.183.184Zm5.308 15.458h7.834A2.83 2.83 0 0 1 60 25.167 2.83 2.83 0 0 1 57.167 28h-7.834v-5.667ZM56.167 12c1.383 0 2.5 1.117 2.5 2.5s-1.117 2.5-2.5 2.5h-6.834v-5h6.834ZM70.833 11.333A3.165 3.165 0 0 0 74 8.167 3.165 3.165 0 0 0 70.833 5a3.165 3.165 0 0 0-3.166 3.167 3.165 3.165 0 0 0 3.166 3.166ZM68.033 13.516c-.033.075-.033.167-.033.35V32.8c0 .183 0 .283.033.35a.293.293 0 0 0 .142.141c.075.034.167.034.35.034h4.6c.183 0 .283 0 .35-.034a.292.292 0 0 0 .142-.141c.033-.075.033-.167.033-.35V13.866c0-.183 0-.283-.033-.35a.292.292 0 0 0-.142-.141c-.075-.034-.167-.034-.35-.034h-4.6c-.183 0-.283 0-.35.034a.293.293 0 0 0-.142.141ZM77 7.2c0-.184 0-.284.033-.35a.293.293 0 0 1 .142-.142c.075-.033.167-.033.35-.033h4.267c.183 0 .283 0 .35.033a.292.292 0 0 1 .141.142c.034.075.034.166.034.35v6.991a10.082 10.082 0 0 1 5.333-1.525c5.708 0 10.333 4.776 10.333 10.667C97.983 29.225 93.358 34 87.65 34c-2.117 0-4.083-.658-5.717-1.783l-1.825 1.041c-.041.025-.066.042-.091.05-.025.008-.042.017-.067.017H77.517c-.184 0-.284 0-.35-.034a.292.292 0 0 1-.142-.141c-.033-.075-.033-.167-.033-.35V7.2H77Zm10.5 21.466c2.85 0 5.167-2.391 5.167-5.333C92.667 20.392 90.35 18 87.5 18c-2.85 0-5.167 2.392-5.167 5.333 0 2.942 2.317 5.334 5.167 5.334ZM110.667 34c5.891 0 10.666-4.775 10.666-10.666 0-5.892-4.775-10.667-10.666-10.667-5.892 0-10.667 4.775-10.667 10.667C100 29.225 104.775 34 110.667 34Zm0-5.333a5.339 5.339 0 0 1-5.334-5.333A5.339 5.339 0 0 1 110.667 18 5.338 5.338 0 0 1 116 23.334a5.338 5.338 0 0 1-5.333 5.333Z" fill="#10171F"/><path d="M120.667 13.334h6.416l3.584 5.274 3.583-5.274h6.417l-6.792 10 6.792 10h-6.417l-3.583-5.276-3.584 5.276h-6.416l6.791-10-6.791-10Z" fill="#10171F"/><path fill-rule="evenodd" clip-rule="evenodd" d="M110.667 34c5.891 0 10.666-4.775 10.666-10.666 0-5.892-4.775-10.667-10.666-10.667-5.892 0-10.667 4.775-10.667 10.667C100 29.225 104.775 34 110.667 34Z" fill="#247BFF"/><path d="M110.558 15.95a.334.334 0 0 0-.408.234l-.433 1.608-1.609-.433a.334.334 0 0 0-.408.233l-.342 1.292a.335.335 0 0 0 .234.408l.966.258-1.55 5.792-.966-.258a.335.335 0 0 0-.409.233l-.341 1.292a.334.334 0 0 0 .233.408l1.608.433-.433 1.609a.334.334 0 0 0 .233.408l.642.175a.334.334 0 0 0 .408-.233l.434-1.609 1.283.342-.433 1.608a.335.335 0 0 0 .233.409l.642.175a.334.334 0 0 0 .408-.234l.433-1.608.442.117a3.038 3.038 0 0 0 3.15-4.85c.425-.367.75-.859.908-1.442a2.872 2.872 0 0 0-1.908-3.483l.433-1.609a.334.334 0 0 0-.233-.408l-.642-.175a.334.334 0 0 0-.408.233l-.433 1.609-1.292-.342.433-1.608a.335.335 0 0 0-.233-.409l-.642-.175Zm-1.041 7.742 2.941.783c.6.159.959.775.792 1.375-.158.6-.775.959-1.375.792l-2.942-.783.584-2.167Zm3.35-2.983a.957.957 0 0 1 .675 1.175.957.957 0 0 1-1.175.675l-2.375-.634.5-1.85 2.375.634Z" fill="#fff"/><path d="M22 4c0 .367-.05.717-.142 1.05l7.275 4.158A3.969 3.969 0 0 1 32 8a4.001 4.001 0 0 1 1 7.875v8.25a4.001 4.001 0 1 1-3.867 6.667l-7.275 4.158A4.001 4.001 0 1 1 14 36c0-.367.05-.717.142-1.05l-7.275-4.158A3.968 3.968 0 0 1 4 32a4.001 4.001 0 0 1-1-7.875v-8.25a4.001 4.001 0 1 1 3.867-6.667l7.275-4.158A4.001 4.001 0 1 1 22 4Zm-5 3.875a3.945 3.945 0 0 1-1.867-1.083L7.858 10.95A3.999 3.999 0 0 1 5 15.875v8.25a3.945 3.945 0 0 1 1.867 1.083l7.275-4.158A3.999 3.999 0 0 1 17 16.125v-8.25Zm2 0v8.25a3.999 3.999 0 0 1 2.858 4.925l7.275 4.158c.5-.516 1.142-.9 1.867-1.083v-8.25a3.999 3.999 0 0 1-2.858-4.925l-7.275-4.158c-.5.516-1.142.9-1.867 1.083ZM18 24a4.002 4.002 0 0 1-2.867-1.208L7.858 26.95a3.99 3.99 0 0 1 0 2.1l7.275 4.158A3.969 3.969 0 0 1 18 32c1.125 0 2.142.467 2.867 1.208l7.275-4.158a3.989 3.989 0 0 1 0-2.1l-7.275-4.158A4.002 4.002 0 0 1 18 24Z" fill="#10171F"/></svg>
