<svg width="170" height="32" viewBox="0 0 170 32" fill="none" xmlns="http://www.w3.org/2000/svg"><path d="M16 0C7.127 0 0 7.127 0 16c0 8.873 7.127 16 16 16 8.873 0 16-7.127 16-16-.145-8.873-7.273-16-16-16Zm1.454 18.618c.437.437.728.873.728 1.6 0 1.164-1.018 2.182-2.182 2.182-.582 0-1.164-.29-1.6-.727-.727-.582-1.6-1.018-2.764-1.018-1.163 0-2.036.436-2.763 1.018l-.146.145c-.436.291-.872.582-1.454.582s-1.018-.145-1.455-.582l-.29-.29v-.146l-.146-.146c0-.145-.146-.29-.146-.436 0-.146-.145-.436-.145-.582 0-.29 0-.436.145-.582 0-.145.146-.29.146-.436 0 0 0-.145.145-.145v-.146c.291 0 .291 0 .291-.145l.146-.146c.581-.727 1.018-1.6 1.018-2.618 0-1.018-.291-1.89-1.018-2.618-.291-.437-.582-1.018-.582-1.746 0-1.163 1.018-2.181 2.182-2.181 1.163 0 2.036 1.018 2.036 2.181 0 .582-.29 1.164-.727 1.6-.582.728-1.018 1.746-1.018 2.764 0 1.018.436 2.036 1.018 2.764l.145.145c.727.582 1.6 1.018 2.618 1.018 1.019 0 1.891-.29 2.619-1.018 0-.145.145-.145.29-.29.582-.728 1.019-1.6 1.019-2.619 0-1.018-.291-1.89-1.018-2.618a2.409 2.409 0 0 1-.728-1.746c0-1.163 1.018-2.181 2.182-2.181s2.182 1.018 2.182 2.181c0 .582-.291 1.164-.727 1.6-.582.728-1.019 1.6-1.019 2.764 0 1.018.291 1.89 1.018 2.618Zm2.764-.582c-1.163 0-2.182-1.018-2.182-2.182 0-1.163 1.018-2.181 2.182-2.181S22.4 14.69 22.4 15.854c0 1.31-1.018 2.182-2.182 2.182Zm5.673.582c.145.146.145.146 0 0 .145.291.29.291.29.291v.146l.146.145c0 .146.146.29.146.436 0 .146.145.437.145.582 0 .291 0 .436-.145.582 0 .145-.146.29-.146.436 0 0 0 .146-.145.146v.145l-.291.291c-.436.291-.873.582-1.455.582-.581 0-1.018-.145-1.454-.582l-.291-.29v-.146l-.145-.146c0-.145-.146-.29-.146-.436 0-.146-.145-.436-.145-.582 0-.29 0-.436.145-.582 0-.145.146-.29.146-.436 0 0 0-.145.145-.145v-.146l.145-.145.146-.146C23.564 17.891 24 17.018 24 16c0-1.018-.29-1.89-1.018-2.618-.436-.437-.727-1.018-.727-1.6 0-1.164 1.018-2.182 2.181-2.182 1.164 0 2.182 1.018 2.182 2.182 0 .582-.29 1.163-.727 1.6-.582.727-1.018 1.6-1.018 2.763 0 .873.436 1.746 1.018 2.473ZM45.818 27.927v-24h6.11v19.2H62.69v4.8H45.818ZM169.309 27.927 157.382 16l11.927-11.927h-8.727l-7.564 7.563V3.927h-6.109v24h6.109v-7.563l7.564 7.563h8.727ZM99.636 23.273l-1.454 4.654h-6.4l8.291-24h8.145l8.291 24h-6.4l-1.454-4.654-1.455-4.51-3.055-10.036-3.2 10.037-1.309 4.509ZM126.4 12.218v15.71h-5.818v-24h7.563l9.019 16.436V3.927h5.818v24h-7.564L126.4 12.218ZM87.273 18.618c-.291-.727-.728-1.309-1.164-1.89a5.232 5.232 0 0 0-1.745-1.164c-.582-.291-1.31-.437-1.891-.582.582-.146 1.163-.291 1.745-.582.582-.29 1.018-.582 1.455-1.018.436-.437.727-.873.872-1.6.291-.582.291-1.31.291-2.037 0-.727-.145-1.454-.29-2.181-.292-.728-.582-1.31-1.31-1.891-.582-.582-1.309-1.018-2.327-1.31-1.018-.29-2.182-.436-3.636-.436H66.618v24H80.145c2.473 0 4.219-.582 5.528-1.745 1.309-1.164 1.89-2.764 1.89-4.8.146-1.018 0-1.891-.29-2.764Zm-14.4-10.763h6.4c.582 0 1.018.145 1.454.29.437.146.727.291 1.018.582.291.291.437.582.582.873.146.29.146.582.146 1.018 0 .727-.291 1.455-.728 1.891-.436.582-1.309.727-2.472.727h-6.4V7.855Zm9.6 14.981c-.437.582-1.31.728-2.473.728h-7.127v-5.382H80c.582 0 1.018.145 1.454.29.437.146.728.292 1.019.582.29.291.436.582.582.873.145.291.145.582.145 1.018 0 .728-.145 1.455-.727 1.891Z" fill="#F8E19A"/></svg>
