<svg width="175" height="32" viewBox="0 0 175 32" fill="none" xmlns="http://www.w3.org/2000/svg"><path d="m111.753 8.003-.529 3.263H97.691c-.951 0-1.797.736-2.008 1.684l-.318 1.789h11.842l-.529 3.263H94.837l-1.48 8.42h-3.278l2.326-13.472c.529-2.842 2.96-4.842 5.815-4.947h13.533Zm-2.009 18.419 3.278-18.314h3.277l-3.277 18.314h-3.278ZM136.07 8.108l-3.277 18.314-2.855-2.526-10.255-9.052-2.009 11.578h-3.278l3.172-18.314 2.855 2.526 10.255 9.052 2.115-11.683 3.277.105Zm3.701 4.842-.318 1.684h11.842l-.529 3.262h-11.841l-.635 3.474c-.211.736.318 1.473 1.058 1.684h13.744l-.528 3.262h-13.428c-2.22.106-4.123-1.684-4.229-3.894 0-.316 0-.737.106-1.052l1.48-8.42c.529-2.842 2.96-4.842 5.815-4.947h13.427l-.528 3.263h-13.428c-.951.105-1.797.736-2.008 1.684Zm35.101-4.842-8.775 9.157 5.497 9.157h-4.123l-3.912-6.42-6.132 6.42h-4.123l8.669-9.157-5.498-9.157h4.124l3.912 6.526 6.237-6.526h4.124Z" fill="#00DCD2"/><path d="M53.815 7.999c4.123-.105 7.612 3.052 7.824 7.157 0 .631 0 1.263-.212 2-.423 2.21-1.586 4.315-3.277 5.894-.212.21-.423.315-.635.526-1.903 1.684-4.334 2.631-6.978 2.736H41.34l3.278-18.418 9.198.105Zm-8.67 15.05h5.92c3.384-.105 6.345-2.525 6.979-5.893.634-2.632-1.057-5.158-3.595-5.79-.423-.104-.846-.104-1.268-.104H47.26L45.145 23.05Zm15.965 3.263L64.388 8h3.277l-3.278 18.313H61.11Zm9.515-9.156c-.634 2.63 1.058 5.157 3.595 5.788.423.106.846.106 1.269.106h5.92l.635-3.474h-5.92l.633-3.262h9.093l-1.797 10.104h-9.199a7.614 7.614 0 0 1-7.823-7.263c0-.631 0-1.263.211-1.894a11.471 11.471 0 0 1 10.784-9.157h9.198l-.528 3.263h-9.198c-3.384 0-6.238 2.42-6.873 5.789Zm-35.1-4.737c0 1.474-.212 2.947-.424 4.42-1.903 10.105-7.718 15.157-17.445 15.157h-6.132v-.105l1.48-6.947h4.23c5.286 0 8.458-2.947 9.515-8.946.106-.421.106-.737.211-1.158L35.418 10c0 .736.106 1.578.106 2.42Zm-3.067-8.735-7.506 4.315c-1.27-.737-2.75-1.158-4.335-1.053H8.352v-.21L9.832 0H22.52c1.586 0 3.277.21 4.758.631 1.797.527 3.488 1.369 4.757 2.632.212.105.317.21.423.42Z" fill="#6E45B7"/><path d="m20.405 13.055-1.163 6.947h-5.18l-2.538 11.893V32H0l4.335-5.789 2.854-13.156h13.216Z" fill="#00DCD2"/><path d="m85.427 26.312 3.278-18.418h3.277l-3.277 18.418h-3.278Z" fill="#fff"/></svg>
