<svg width="174" height="40" viewBox="0 0 174 40" fill="none" xmlns="http://www.w3.org/2000/svg"><path d="M20.06 0 0 11.316v17.368L20.06 40l20.06-11.316V11.316L20.06 0Zm16.305 26.268L20.06 35.466 3.755 26.268V13.732L20.06 4.534l16.305 9.198v12.54-.004Z" fill="#1FAA8E"/><path d="M3.718 18.573 22.615 29.1l3.726-2.632-6.654-3.684 3.412-3.947 13.356 7.368v-4.663L17.292 10.679 13.3 13.31l6.494 3.527-3.567 3.842-12.509-6.842v4.736ZM73.341 32.003h-5.003v-10.29h-9.755v10.29h-5.001V7.998h5.001v9.729h9.755v-9.73h5.003v24.006ZM98.165 20.545c0 2.363-.423 4.434-1.267 6.216-.846 1.781-2.054 3.155-3.627 4.12-1.573.97-3.378 1.45-5.411 1.45-2.034 0-3.809-.478-5.387-1.433-1.578-.956-2.803-2.322-3.668-4.098-.867-1.774-1.306-3.816-1.317-6.126v-1.187c0-2.363.431-4.445 1.293-6.24.863-1.797 2.079-3.176 3.652-4.139 1.573-.96 3.372-1.442 5.395-1.442 2.023 0 3.822.482 5.395 1.442 1.573.963 2.79 2.342 3.651 4.14.863 1.797 1.294 3.87 1.294 6.223v1.071l-.003.003Zm-5.07-1.09c0-2.515-.455-4.428-1.368-5.736-.91-1.308-2.212-1.963-3.902-1.963s-2.973.644-3.886 1.936c-.912 1.292-1.373 3.184-1.384 5.68v1.17c0 2.45.456 4.353 1.368 5.706.91 1.352 2.223 2.028 3.937 2.028s2.968-.652 3.87-1.952c.9-1.303 1.357-3.2 1.368-5.698v-1.17h-.003ZM119.173 12.003h-7.437v20h-5.001v-20h-7.337V7.998h19.777v4.005h-.002ZM122.537 32.003V7.998h8.504c2.946 0 5.179.557 6.704 1.673 1.522 1.116 2.284 2.75 2.284 4.905 0 1.177-.306 2.214-.919 3.108-.612.898-1.461 1.553-2.552 1.971 1.246.308 2.228.93 2.944 1.864.718.934 1.075 2.076 1.075 3.429 0 2.308-.745 4.055-2.233 5.242-1.491 1.186-3.615 1.792-6.369 1.813h-9.438Zm5.004-13.948h3.702c2.523-.044 3.785-1.039 3.785-2.984 0-1.09-.32-1.87-.959-2.35-.638-.479-1.647-.718-3.026-.718h-3.502v6.052Zm0 3.495v6.48h4.285c1.179 0 2.097-.277 2.76-.832.66-.556.992-1.322.992-2.3 0-2.198-1.149-3.314-3.452-3.348h-4.585ZM150.164 32.003h-5.001V7.998h5.001v24.005ZM173.103 12.003h-7.436v20h-5.001v-20h-7.338V7.998h19.778v4.005h-.003Z" fill="#1FAA8E"/></svg>
