<svg width="133" height="48" viewBox="0 0 133 48" fill="none" xmlns="http://www.w3.org/2000/svg"><path d="M90.903 47.513H74.814l8.554-13.319h-7.446v-4.432h15.602l-8.555 13.319h5.807c1.196 0 2.15.953 2.15 2.15l-.023 2.282Zm42.061-15.756a2.204 2.204 0 0 1-2.194 2.216h-2.238v5.717a3.22 3.22 0 0 0 3.213 3.236h1.219v4.476h-1.219c-4.21 0-7.623-3.457-7.623-7.712V22.804h2.238c1.219 0 2.194.997 2.194 2.216v4.476h4.432c-.022 0-.022 2.26-.022 2.26Zm-29.163-2.15c5.052 0 9.174 4.122 9.174 9.197 0 5.075-4.122 9.196-9.174 9.196-1.773 0-3.48-.51-4.964-1.462v1.02h-4.455V23.024h4.455v8.045a9.1 9.1 0 0 1 4.964-1.463Zm12.011 17.906V29.74h4.299v17.773h-4.299Zm0-20.166v-4.322h4.299v4.322h-4.299ZM70.737 47.513a3.073 3.073 0 0 1-2.881-1.972l-.975-2.482H57.64l-1.817 4.454h-4.831l9.374-23.114a2.217 2.217 0 0 1 2.903-1.219c.576.222 1.02.687 1.24 1.264l8.865 23.069h-2.637Zm33.064-3.967c2.592 0 4.72-2.127 4.72-4.742a4.71 4.71 0 0 0-4.72-4.72c-2.593 0-4.72 2.127-4.72 4.72s2.105 4.742 4.72 4.742Zm-44.41-4.742h5.828l-2.837-7.336-2.991 7.336Z" fill="#1C3440"/><path d="M36.632 34.238 17.086 0 0 29.895h23.8l-2.947-5.164a3.279 3.279 0 0 0-2.859-1.662h-6.293l5.385-9.44 19.546 34.238 14.16-24.798h-7.8l-6.36 11.17Z" fill="#00AC76"/></svg>
