<svg width="173" height="48" viewBox="0 0 173 48" fill="none" xmlns="http://www.w3.org/2000/svg"><path d="M117.543 14.68h-7.313c-3.597 0-5.635.558-7.233 1.916-1.958 1.676-2.997 4.35-2.997 7.744 0 2.914.839 5.23 2.518 7.106 1.758 1.956 3.796 2.674 7.712 2.674h7.313V29.97h-5.795c-2.157 0-3.196-.24-4.235-.958-1.359-.918-2.038-2.475-2.038-4.591 0-3.952 1.678-5.589 5.674-5.589h6.394v-4.152ZM130.76 14.4c-6.353 0-10.389 3.832-10.389 9.94 0 6.347 3.796 10.06 10.189 10.06 6.394 0 10.39-3.753 10.39-9.78 0-2.795-.719-5.03-2.238-6.947-1.678-2.155-4.435-3.273-7.952-3.273Zm-.16 4.112c3.237 0 4.876 1.956 4.876 5.828 0 3.992-1.599 5.948-4.756 5.948-3.197 0-4.875-1.996-4.875-5.788 0-3.992 1.559-5.988 4.755-5.988ZM144.948 14.68v19.44h5.354V18.831h5.755v15.29h5.354V18.83h2.837c1.119 0 1.959.24 2.478.759.599.558.719 1.077.719 2.994V34.12h5.355V21.745c0-2.155-.639-4.032-1.758-5.27-1.239-1.357-2.877-1.796-6.434-1.796h-19.66Z" fill="#000"/><circle cx="93.6" cy="31.2" r="2.4" fill="#F5C159"/><path d="M61.393 24.295 53.6 34.4h5.802l4.944-6.867 5.046 6.867h5.734l-7.76-10.105 7.76-9.895H69.22l-4.875 6.567-4.498-6.567h-5.973l7.518 9.895Z" fill="#000"/><path d="M82.772 17.968V34.4h4.875V17.968H95.2V14.4H76.56l-2.704 3.568h8.916Z" fill="#000"/><path fill-rule="evenodd" clip-rule="evenodd" d="M48 24c0 13.255-10.745 24-24 24S0 37.255 0 24 10.745 0 24 0s24 10.745 24 24Zm-3.2 0c0 11.487-9.313 20.8-20.8 20.8-11.488 0-20.8-9.313-20.8-20.8C3.2 12.512 12.513 3.2 24 3.2S44.8 12.513 44.8 24ZM29.326 13.003a1.533 1.533 0 0 0-2.183.213l-4.46 5.515-4.484-5.233a2 2 0 0 0-1.519-.698h-2.732c-1.708 0-2.63 2.004-1.518 3.302l6.37 7.432-7.474 9.243a1.595 1.595 0 0 0 .217 2.22c.662.554 1.64.458 2.183-.213l7.142-8.834 1.636 1.908-3.978 4.92a1.595 1.595 0 0 0 .217 2.219c.662.554 1.64.458 2.183-.213l3.649-4.513L28.2 34.5a2 2 0 0 0 1.519.7h2.732c1.708 0 2.63-2.005 1.518-3.303l-5.512-6.43 8.284-10.245a1.596 1.596 0 0 0-.216-2.22 1.533 1.533 0 0 0-2.183.213l-7.955 9.837-1.635-1.907 4.79-5.923a1.596 1.596 0 0 0-.217-2.22Zm-6.82 14.853-1.636-1.908 3.883-4.802 1.635 1.908-3.883 4.802Z" fill="#F5C159"/></svg>
